<mxfile host="app.diagrams.net" modified="2023-09-20T14:52:49.228Z" agent="Mozilla/5.0 (Windows NT 10.0; Win64; x64) AppleWebKit/537.36 (KHTML, like Gecko) Chrome/116.0.0.0 Safari/537.36" etag="z7mWgqbaISLRiQASy2Lv" version="21.7.5" type="device">
  <diagram name="Puslapis-1" id="MgEVTWNWrSBytGPbkd8c">
    <mxGraphModel dx="1434" dy="758" grid="1" gridSize="10" guides="1" tooltips="1" connect="1" arrows="1" fold="1" page="1" pageScale="1" pageWidth="1169" pageHeight="827" math="0" shadow="0">
      <root>
        <mxCell id="0" />
        <mxCell id="1" parent="0" />
        <mxCell id="7y2IQrQTcqF_r2YQeA5m-1" value="Bronė" style="ellipse;whiteSpace=wrap;html=1;" vertex="1" parent="1">
          <mxGeometry x="210" y="190" width="80" height="50" as="geometry" />
        </mxCell>
        <mxCell id="7y2IQrQTcqF_r2YQeA5m-2" value="Antanijus" style="ellipse;whiteSpace=wrap;html=1;" vertex="1" parent="1">
          <mxGeometry x="290" y="190" width="80" height="50" as="geometry" />
        </mxCell>
        <mxCell id="7y2IQrQTcqF_r2YQeA5m-3" value="" style="endArrow=none;dashed=1;html=1;dashPattern=1 3;strokeWidth=2;rounded=0;exitX=1;exitY=0.5;exitDx=0;exitDy=0;entryX=0;entryY=0.5;entryDx=0;entryDy=0;" edge="1" parent="1" source="7y2IQrQTcqF_r2YQeA5m-1" target="7y2IQrQTcqF_r2YQeA5m-2">
          <mxGeometry width="50" height="50" relative="1" as="geometry">
            <mxPoint x="500" y="320" as="sourcePoint" />
            <mxPoint x="550" y="270" as="targetPoint" />
          </mxGeometry>
        </mxCell>
        <mxCell id="7y2IQrQTcqF_r2YQeA5m-4" value="Antanas" style="ellipse;whiteSpace=wrap;html=1;" vertex="1" parent="1">
          <mxGeometry x="360" y="290" width="80" height="50" as="geometry" />
        </mxCell>
        <mxCell id="7y2IQrQTcqF_r2YQeA5m-5" value="Vida" style="ellipse;whiteSpace=wrap;html=1;" vertex="1" parent="1">
          <mxGeometry x="140" y="290" width="80" height="50" as="geometry" />
        </mxCell>
        <mxCell id="7y2IQrQTcqF_r2YQeA5m-6" value="Romas" style="ellipse;whiteSpace=wrap;html=1;" vertex="1" parent="1">
          <mxGeometry x="60" y="290" width="80" height="50" as="geometry" />
        </mxCell>
        <mxCell id="7y2IQrQTcqF_r2YQeA5m-7" value="" style="endArrow=none;dashed=1;html=1;dashPattern=1 3;strokeWidth=2;rounded=0;exitX=1;exitY=0.5;exitDx=0;exitDy=0;entryX=0;entryY=0.5;entryDx=0;entryDy=0;" edge="1" parent="1" source="7y2IQrQTcqF_r2YQeA5m-6" target="7y2IQrQTcqF_r2YQeA5m-5">
          <mxGeometry width="50" height="50" relative="1" as="geometry">
            <mxPoint x="400" y="320" as="sourcePoint" />
            <mxPoint x="450" y="270" as="targetPoint" />
          </mxGeometry>
        </mxCell>
        <mxCell id="7y2IQrQTcqF_r2YQeA5m-8" value="Rimas" style="ellipse;whiteSpace=wrap;html=1;" vertex="1" parent="1">
          <mxGeometry x="250" y="290" width="80" height="50" as="geometry" />
        </mxCell>
        <mxCell id="7y2IQrQTcqF_r2YQeA5m-9" value="Lina" style="ellipse;whiteSpace=wrap;html=1;" vertex="1" parent="1">
          <mxGeometry x="440" y="290" width="80" height="50" as="geometry" />
        </mxCell>
        <mxCell id="7y2IQrQTcqF_r2YQeA5m-10" value="" style="endArrow=none;dashed=1;html=1;rounded=0;exitX=1;exitY=0.5;exitDx=0;exitDy=0;entryX=0;entryY=0.5;entryDx=0;entryDy=0;" edge="1" parent="1" source="7y2IQrQTcqF_r2YQeA5m-4" target="7y2IQrQTcqF_r2YQeA5m-9">
          <mxGeometry width="50" height="50" relative="1" as="geometry">
            <mxPoint x="400" y="320" as="sourcePoint" />
            <mxPoint x="450" y="270" as="targetPoint" />
          </mxGeometry>
        </mxCell>
        <mxCell id="7y2IQrQTcqF_r2YQeA5m-12" value="" style="endArrow=none;html=1;rounded=0;entryX=0;entryY=0.5;entryDx=0;entryDy=0;exitX=0.5;exitY=0;exitDx=0;exitDy=0;" edge="1" parent="1" source="7y2IQrQTcqF_r2YQeA5m-8" target="7y2IQrQTcqF_r2YQeA5m-2">
          <mxGeometry width="50" height="50" relative="1" as="geometry">
            <mxPoint x="290" y="270" as="sourcePoint" />
            <mxPoint x="490" y="270" as="targetPoint" />
          </mxGeometry>
        </mxCell>
        <mxCell id="7y2IQrQTcqF_r2YQeA5m-13" value="" style="endArrow=none;html=1;rounded=0;exitX=0.5;exitY=0;exitDx=0;exitDy=0;entryX=0;entryY=0.5;entryDx=0;entryDy=0;" edge="1" parent="1" source="7y2IQrQTcqF_r2YQeA5m-5" target="7y2IQrQTcqF_r2YQeA5m-2">
          <mxGeometry width="50" height="50" relative="1" as="geometry">
            <mxPoint x="440" y="320" as="sourcePoint" />
            <mxPoint x="200" y="250" as="targetPoint" />
            <Array as="points">
              <mxPoint x="180" y="260" />
              <mxPoint x="290" y="260" />
            </Array>
          </mxGeometry>
        </mxCell>
        <mxCell id="7y2IQrQTcqF_r2YQeA5m-14" value="" style="endArrow=none;html=1;rounded=0;exitX=1;exitY=0.5;exitDx=0;exitDy=0;entryX=0.5;entryY=0;entryDx=0;entryDy=0;" edge="1" parent="1" source="7y2IQrQTcqF_r2YQeA5m-1" target="7y2IQrQTcqF_r2YQeA5m-4">
          <mxGeometry width="50" height="50" relative="1" as="geometry">
            <mxPoint x="440" y="320" as="sourcePoint" />
            <mxPoint x="490" y="270" as="targetPoint" />
            <Array as="points">
              <mxPoint x="290" y="260" />
              <mxPoint x="400" y="260" />
            </Array>
          </mxGeometry>
        </mxCell>
        <mxCell id="7y2IQrQTcqF_r2YQeA5m-16" value="Stefanija" style="ellipse;whiteSpace=wrap;html=1;" vertex="1" parent="1">
          <mxGeometry x="560" y="190" width="80" height="50" as="geometry" />
        </mxCell>
        <mxCell id="7y2IQrQTcqF_r2YQeA5m-17" value="Petras" style="ellipse;whiteSpace=wrap;html=1;" vertex="1" parent="1">
          <mxGeometry x="640" y="190" width="80" height="50" as="geometry" />
        </mxCell>
        <mxCell id="7y2IQrQTcqF_r2YQeA5m-18" value="Zosė" style="ellipse;whiteSpace=wrap;html=1;" vertex="1" parent="1">
          <mxGeometry x="600" y="290" width="80" height="50" as="geometry" />
        </mxCell>
        <mxCell id="7y2IQrQTcqF_r2YQeA5m-19" value="Juozas" style="ellipse;whiteSpace=wrap;html=1;" vertex="1" parent="1">
          <mxGeometry x="680" y="290" width="80" height="50" as="geometry" />
        </mxCell>
        <mxCell id="7y2IQrQTcqF_r2YQeA5m-20" value="Kazys" style="ellipse;whiteSpace=wrap;html=1;" vertex="1" parent="1">
          <mxGeometry x="800" y="290" width="80" height="50" as="geometry" />
        </mxCell>
        <mxCell id="7y2IQrQTcqF_r2YQeA5m-21" value="Vitas" style="ellipse;whiteSpace=wrap;html=1;" vertex="1" parent="1">
          <mxGeometry x="920" y="290" width="80" height="50" as="geometry" />
        </mxCell>
        <mxCell id="7y2IQrQTcqF_r2YQeA5m-22" value="Katastrofa" style="ellipse;whiteSpace=wrap;html=1;" vertex="1" parent="1">
          <mxGeometry x="1000" y="290" width="80" height="50" as="geometry" />
        </mxCell>
        <mxCell id="7y2IQrQTcqF_r2YQeA5m-23" value="Kęstas" style="ellipse;whiteSpace=wrap;html=1;" vertex="1" parent="1">
          <mxGeometry x="10" y="389" width="80" height="50" as="geometry" />
        </mxCell>
        <mxCell id="7y2IQrQTcqF_r2YQeA5m-24" value="Modestas" style="ellipse;whiteSpace=wrap;html=1;" vertex="1" parent="1">
          <mxGeometry x="100" y="389" width="80" height="50" as="geometry" />
        </mxCell>
        <mxCell id="7y2IQrQTcqF_r2YQeA5m-25" value="Tomas" style="ellipse;whiteSpace=wrap;html=1;" vertex="1" parent="1">
          <mxGeometry x="190" y="389" width="80" height="50" as="geometry" />
        </mxCell>
        <mxCell id="7y2IQrQTcqF_r2YQeA5m-26" value="Lukas" style="ellipse;whiteSpace=wrap;html=1;" vertex="1" parent="1">
          <mxGeometry x="350" y="389" width="80" height="50" as="geometry" />
        </mxCell>
        <mxCell id="7y2IQrQTcqF_r2YQeA5m-27" value="Akvilė" style="ellipse;whiteSpace=wrap;html=1;" vertex="1" parent="1">
          <mxGeometry x="450" y="389" width="80" height="50" as="geometry" />
        </mxCell>
        <mxCell id="7y2IQrQTcqF_r2YQeA5m-28" value="Liucija" style="ellipse;whiteSpace=wrap;html=1;" vertex="1" parent="1">
          <mxGeometry x="560" y="389" width="80" height="50" as="geometry" />
        </mxCell>
        <mxCell id="7y2IQrQTcqF_r2YQeA5m-29" value="Ilona" style="ellipse;whiteSpace=wrap;html=1;" vertex="1" parent="1">
          <mxGeometry x="660" y="389" width="80" height="50" as="geometry" />
        </mxCell>
        <mxCell id="7y2IQrQTcqF_r2YQeA5m-30" value="Robert" style="ellipse;whiteSpace=wrap;html=1;" vertex="1" parent="1">
          <mxGeometry x="740" y="389" width="80" height="50" as="geometry" />
        </mxCell>
        <mxCell id="7y2IQrQTcqF_r2YQeA5m-31" value="Valdas" style="ellipse;whiteSpace=wrap;html=1;" vertex="1" parent="1">
          <mxGeometry x="870" y="389" width="80" height="50" as="geometry" />
        </mxCell>
        <mxCell id="7y2IQrQTcqF_r2YQeA5m-32" value="Galia" style="ellipse;whiteSpace=wrap;html=1;" vertex="1" parent="1">
          <mxGeometry x="990" y="389" width="80" height="50" as="geometry" />
        </mxCell>
        <mxCell id="7y2IQrQTcqF_r2YQeA5m-33" value="Igor" style="ellipse;whiteSpace=wrap;html=1;" vertex="1" parent="1">
          <mxGeometry x="1070" y="389" width="80" height="50" as="geometry" />
        </mxCell>
        <mxCell id="7y2IQrQTcqF_r2YQeA5m-34" value="Edvinas" style="ellipse;whiteSpace=wrap;html=1;" vertex="1" parent="1">
          <mxGeometry x="560" y="480" width="80" height="50" as="geometry" />
        </mxCell>
        <mxCell id="7y2IQrQTcqF_r2YQeA5m-35" value="Sofija" style="ellipse;whiteSpace=wrap;html=1;" vertex="1" parent="1">
          <mxGeometry x="650" y="480" width="80" height="50" as="geometry" />
        </mxCell>
        <mxCell id="7y2IQrQTcqF_r2YQeA5m-36" value="Gabrielius" style="ellipse;whiteSpace=wrap;html=1;" vertex="1" parent="1">
          <mxGeometry x="750" y="480" width="80" height="50" as="geometry" />
        </mxCell>
        <mxCell id="7y2IQrQTcqF_r2YQeA5m-37" value="Dimitrij" style="ellipse;whiteSpace=wrap;html=1;" vertex="1" parent="1">
          <mxGeometry x="1030" y="480" width="80" height="50" as="geometry" />
        </mxCell>
        <mxCell id="7y2IQrQTcqF_r2YQeA5m-38" value="" style="endArrow=none;html=1;rounded=0;entryX=0;entryY=0.5;entryDx=0;entryDy=0;exitX=0.5;exitY=0;exitDx=0;exitDy=0;" edge="1" parent="1" source="7y2IQrQTcqF_r2YQeA5m-24" target="7y2IQrQTcqF_r2YQeA5m-5">
          <mxGeometry width="50" height="50" relative="1" as="geometry">
            <mxPoint x="510" y="420" as="sourcePoint" />
            <mxPoint x="560" y="370" as="targetPoint" />
          </mxGeometry>
        </mxCell>
        <mxCell id="7y2IQrQTcqF_r2YQeA5m-39" value="" style="endArrow=none;html=1;rounded=0;entryX=0;entryY=0.5;entryDx=0;entryDy=0;exitX=0.5;exitY=0;exitDx=0;exitDy=0;" edge="1" parent="1" source="7y2IQrQTcqF_r2YQeA5m-23" target="7y2IQrQTcqF_r2YQeA5m-5">
          <mxGeometry width="50" height="50" relative="1" as="geometry">
            <mxPoint x="510" y="420" as="sourcePoint" />
            <mxPoint x="560" y="370" as="targetPoint" />
            <Array as="points">
              <mxPoint x="50" y="360" />
              <mxPoint x="140" y="360" />
            </Array>
          </mxGeometry>
        </mxCell>
        <mxCell id="7y2IQrQTcqF_r2YQeA5m-40" value="" style="endArrow=none;html=1;rounded=0;entryX=0;entryY=0.5;entryDx=0;entryDy=0;exitX=0.5;exitY=0;exitDx=0;exitDy=0;" edge="1" parent="1" source="7y2IQrQTcqF_r2YQeA5m-25" target="7y2IQrQTcqF_r2YQeA5m-5">
          <mxGeometry width="50" height="50" relative="1" as="geometry">
            <mxPoint x="510" y="420" as="sourcePoint" />
            <mxPoint x="560" y="370" as="targetPoint" />
            <Array as="points">
              <mxPoint x="230" y="360" />
              <mxPoint x="140" y="360" />
            </Array>
          </mxGeometry>
        </mxCell>
        <mxCell id="7y2IQrQTcqF_r2YQeA5m-41" value="" style="endArrow=none;html=1;rounded=0;entryX=0;entryY=0.5;entryDx=0;entryDy=0;exitX=0.5;exitY=0;exitDx=0;exitDy=0;" edge="1" parent="1" source="7y2IQrQTcqF_r2YQeA5m-26" target="7y2IQrQTcqF_r2YQeA5m-9">
          <mxGeometry width="50" height="50" relative="1" as="geometry">
            <mxPoint x="510" y="420" as="sourcePoint" />
            <mxPoint x="560" y="370" as="targetPoint" />
            <Array as="points">
              <mxPoint x="390" y="360" />
              <mxPoint x="440" y="360" />
            </Array>
          </mxGeometry>
        </mxCell>
        <mxCell id="7y2IQrQTcqF_r2YQeA5m-42" value="" style="endArrow=none;html=1;rounded=0;exitX=0.5;exitY=0;exitDx=0;exitDy=0;" edge="1" parent="1" source="7y2IQrQTcqF_r2YQeA5m-27">
          <mxGeometry width="50" height="50" relative="1" as="geometry">
            <mxPoint x="510" y="420" as="sourcePoint" />
            <mxPoint x="440" y="320" as="targetPoint" />
            <Array as="points">
              <mxPoint x="490" y="360" />
              <mxPoint x="440" y="360" />
            </Array>
          </mxGeometry>
        </mxCell>
        <mxCell id="7y2IQrQTcqF_r2YQeA5m-43" value="" style="endArrow=none;html=1;rounded=0;entryX=1;entryY=0.5;entryDx=0;entryDy=0;exitX=0.5;exitY=0;exitDx=0;exitDy=0;" edge="1" parent="1" source="7y2IQrQTcqF_r2YQeA5m-18" target="7y2IQrQTcqF_r2YQeA5m-16">
          <mxGeometry width="50" height="50" relative="1" as="geometry">
            <mxPoint x="510" y="420" as="sourcePoint" />
            <mxPoint x="560" y="370" as="targetPoint" />
          </mxGeometry>
        </mxCell>
        <mxCell id="7y2IQrQTcqF_r2YQeA5m-44" value="" style="endArrow=none;html=1;rounded=0;exitX=0.5;exitY=0;exitDx=0;exitDy=0;" edge="1" parent="1" source="7y2IQrQTcqF_r2YQeA5m-9">
          <mxGeometry width="50" height="50" relative="1" as="geometry">
            <mxPoint x="510" y="420" as="sourcePoint" />
            <mxPoint x="640" y="220" as="targetPoint" />
            <Array as="points">
              <mxPoint x="480" y="260" />
              <mxPoint x="640" y="260" />
            </Array>
          </mxGeometry>
        </mxCell>
        <mxCell id="7y2IQrQTcqF_r2YQeA5m-45" value="" style="endArrow=none;html=1;rounded=0;entryX=0;entryY=0.5;entryDx=0;entryDy=0;exitX=0.5;exitY=0;exitDx=0;exitDy=0;" edge="1" parent="1" source="7y2IQrQTcqF_r2YQeA5m-20" target="7y2IQrQTcqF_r2YQeA5m-17">
          <mxGeometry width="50" height="50" relative="1" as="geometry">
            <mxPoint x="510" y="420" as="sourcePoint" />
            <mxPoint x="560" y="370" as="targetPoint" />
            <Array as="points">
              <mxPoint x="840" y="260" />
              <mxPoint x="640" y="260" />
            </Array>
          </mxGeometry>
        </mxCell>
        <mxCell id="7y2IQrQTcqF_r2YQeA5m-46" value="" style="endArrow=none;html=1;rounded=0;entryX=1;entryY=0.5;entryDx=0;entryDy=0;exitX=0.5;exitY=0;exitDx=0;exitDy=0;" edge="1" parent="1" source="7y2IQrQTcqF_r2YQeA5m-21" target="7y2IQrQTcqF_r2YQeA5m-16">
          <mxGeometry width="50" height="50" relative="1" as="geometry">
            <mxPoint x="510" y="420" as="sourcePoint" />
            <mxPoint x="560" y="370" as="targetPoint" />
            <Array as="points">
              <mxPoint x="960" y="260" />
              <mxPoint x="640" y="260" />
            </Array>
          </mxGeometry>
        </mxCell>
        <mxCell id="7y2IQrQTcqF_r2YQeA5m-47" value="" style="endArrow=none;html=1;rounded=0;entryX=1;entryY=0.5;entryDx=0;entryDy=0;exitX=0.5;exitY=0;exitDx=0;exitDy=0;" edge="1" parent="1" source="7y2IQrQTcqF_r2YQeA5m-28" target="7y2IQrQTcqF_r2YQeA5m-18">
          <mxGeometry width="50" height="50" relative="1" as="geometry">
            <mxPoint x="510" y="420" as="sourcePoint" />
            <mxPoint x="560" y="370" as="targetPoint" />
            <Array as="points">
              <mxPoint x="600" y="360" />
              <mxPoint x="680" y="360" />
            </Array>
          </mxGeometry>
        </mxCell>
        <mxCell id="7y2IQrQTcqF_r2YQeA5m-48" value="" style="endArrow=none;html=1;rounded=0;entryX=1;entryY=0.5;entryDx=0;entryDy=0;exitX=0.5;exitY=0;exitDx=0;exitDy=0;" edge="1" parent="1" source="7y2IQrQTcqF_r2YQeA5m-29" target="7y2IQrQTcqF_r2YQeA5m-18">
          <mxGeometry width="50" height="50" relative="1" as="geometry">
            <mxPoint x="510" y="420" as="sourcePoint" />
            <mxPoint x="560" y="370" as="targetPoint" />
            <Array as="points">
              <mxPoint x="700" y="360" />
              <mxPoint x="680" y="360" />
            </Array>
          </mxGeometry>
        </mxCell>
        <mxCell id="7y2IQrQTcqF_r2YQeA5m-49" value="" style="endArrow=none;html=1;rounded=0;entryX=0.5;entryY=1;entryDx=0;entryDy=0;exitX=0.5;exitY=0;exitDx=0;exitDy=0;" edge="1" parent="1" source="7y2IQrQTcqF_r2YQeA5m-34" target="7y2IQrQTcqF_r2YQeA5m-28">
          <mxGeometry width="50" height="50" relative="1" as="geometry">
            <mxPoint x="510" y="420" as="sourcePoint" />
            <mxPoint x="560" y="370" as="targetPoint" />
          </mxGeometry>
        </mxCell>
        <mxCell id="7y2IQrQTcqF_r2YQeA5m-50" value="" style="endArrow=none;html=1;rounded=0;entryX=1;entryY=0.5;entryDx=0;entryDy=0;exitX=0.5;exitY=0;exitDx=0;exitDy=0;" edge="1" parent="1" source="7y2IQrQTcqF_r2YQeA5m-35" target="7y2IQrQTcqF_r2YQeA5m-29">
          <mxGeometry width="50" height="50" relative="1" as="geometry">
            <mxPoint x="510" y="420" as="sourcePoint" />
            <mxPoint x="560" y="370" as="targetPoint" />
            <Array as="points">
              <mxPoint x="690" y="460" />
              <mxPoint x="740" y="460" />
            </Array>
          </mxGeometry>
        </mxCell>
        <mxCell id="7y2IQrQTcqF_r2YQeA5m-51" value="" style="endArrow=none;html=1;rounded=0;entryX=1;entryY=0.5;entryDx=0;entryDy=0;exitX=0.5;exitY=0;exitDx=0;exitDy=0;" edge="1" parent="1" source="7y2IQrQTcqF_r2YQeA5m-36" target="7y2IQrQTcqF_r2YQeA5m-29">
          <mxGeometry width="50" height="50" relative="1" as="geometry">
            <mxPoint x="510" y="420" as="sourcePoint" />
            <mxPoint x="560" y="370" as="targetPoint" />
            <Array as="points">
              <mxPoint x="790" y="460" />
              <mxPoint x="740" y="460" />
            </Array>
          </mxGeometry>
        </mxCell>
        <mxCell id="7y2IQrQTcqF_r2YQeA5m-52" value="" style="endArrow=none;html=1;rounded=0;entryX=0;entryY=0.5;entryDx=0;entryDy=0;exitX=0.5;exitY=0;exitDx=0;exitDy=0;" edge="1" parent="1" source="7y2IQrQTcqF_r2YQeA5m-31" target="7y2IQrQTcqF_r2YQeA5m-22">
          <mxGeometry width="50" height="50" relative="1" as="geometry">
            <mxPoint x="510" y="420" as="sourcePoint" />
            <mxPoint x="560" y="370" as="targetPoint" />
            <Array as="points">
              <mxPoint x="910" y="360" />
              <mxPoint x="1000" y="360" />
            </Array>
          </mxGeometry>
        </mxCell>
        <mxCell id="7y2IQrQTcqF_r2YQeA5m-53" value="" style="endArrow=none;html=1;rounded=0;entryX=0;entryY=0.5;entryDx=0;entryDy=0;exitX=0.5;exitY=0;exitDx=0;exitDy=0;" edge="1" parent="1" source="7y2IQrQTcqF_r2YQeA5m-32" target="7y2IQrQTcqF_r2YQeA5m-22">
          <mxGeometry width="50" height="50" relative="1" as="geometry">
            <mxPoint x="510" y="420" as="sourcePoint" />
            <mxPoint x="560" y="370" as="targetPoint" />
            <Array as="points">
              <mxPoint x="1030" y="360" />
              <mxPoint x="1000" y="360" />
            </Array>
          </mxGeometry>
        </mxCell>
        <mxCell id="7y2IQrQTcqF_r2YQeA5m-54" value="" style="endArrow=none;html=1;rounded=0;entryX=1;entryY=0.5;entryDx=0;entryDy=0;exitX=0.5;exitY=0;exitDx=0;exitDy=0;" edge="1" parent="1" source="7y2IQrQTcqF_r2YQeA5m-37" target="7y2IQrQTcqF_r2YQeA5m-32">
          <mxGeometry width="50" height="50" relative="1" as="geometry">
            <mxPoint x="510" y="420" as="sourcePoint" />
            <mxPoint x="560" y="370" as="targetPoint" />
          </mxGeometry>
        </mxCell>
      </root>
    </mxGraphModel>
  </diagram>
</mxfile>
